<?xml version="1.0" encoding="UTF-8" standalone="no"?>
<!-- Created with Inkscape (http://www.inkscape.org/) -->

<svg
   width="40.023796mm"
   height="36.295502mm"
   viewBox="0 0 40.023795 36.295502"
   version="1.1"
   id="svg1"
   inkscape:export-filename="footer_logo.svg"
   inkscape:export-xdpi="96"
   inkscape:export-ydpi="96"
   xmlns:inkscape="http://www.inkscape.org/namespaces/inkscape"
   xmlns:sodipodi="http://sodipodi.sourceforge.net/DTD/sodipodi-0.dtd"
   xmlns="http://www.w3.org/2000/svg"
   xmlns:svg="http://www.w3.org/2000/svg">
  <sodipodi:namedview
     id="namedview1"
     pagecolor="#505050"
     bordercolor="#eeeeee"
     borderopacity="1"
     inkscape:showpageshadow="0"
     inkscape:pageopacity="0"
     inkscape:pagecheckerboard="0"
     inkscape:deskcolor="#505050"
     inkscape:document-units="mm">
    <inkscape:page
       x="0"
       y="0"
       width="40.023796"
       height="36.295502"
       id="page2"
       margin="0"
       bleed="0" />
  </sodipodi:namedview>
  <defs
     id="defs1" />
  <g
     inkscape:label="طبقة 1"
     inkscape:groupmode="layer"
     id="layer1"
     transform="translate(197.15813,-1495.4752)">
    <path
       d="m -177.35302,1515.0728 -2.12217,1.3072 2.12217,1.3072 2.1225,-1.3072 z"
       style="vector-effect:non-scaling-stroke;fill:#ffffff;stroke-width:0.192443;stroke-dashoffset:8;-inkscape-stroke:hairline"
       id="path138" />
    <path
       d="m -177.35334,1499.462 c -1.37544,1.4754 -2.14427,3.4144 -2.15331,5.4315 0.009,2.0098 0.78179,3.9498 2.14812,5.4236 1.36646,-1.4738 2.1195,-3.4138 2.12833,-5.4236 -4.4e-4,-2.0131 -0.75867,-3.9517 -2.12314,-5.4315 z"
       style="vector-effect:non-scaling-stroke;fill:#b4964d;fill-opacity:1;stroke-width:0.192443;stroke-dashoffset:8;-inkscape-stroke:hairline"
       id="path136" />
    <path
       d="m -177.30986,1495.4752 c -0.13055,0.066 -0.25962,0.1352 -0.38739,0.2067 -3.17091,1.9904 -5.09991,5.4674 -5.10995,9.2112 0.009,3.7364 1.93039,7.2079 5.09081,9.2009 0,0 0.0444,-0.026 3.3e-4,3e-4 -0.59078,0.3746 -1.21635,0.6915 -1.86781,0.9464 -0.0356,0.011 -0.0714,0.021 -0.10707,0.033 -0.2991,0.1125 -0.60187,0.2128 -0.90909,0.2985 -0.82509,0.2458 -1.68114,0.4044 -2.5342,0.3938 -0.006,3e-4 -0.0119,0 -0.0178,0 -0.004,-10e-5 -0.007,0 -0.0107,0 -0.009,-10e-5 -0.0181,5e-4 -0.0272,4e-4 -2.49501,-0.052 -4.83715,-1.0144 -6.67895,-2.6079 -0.004,0 -0.006,-0.01 -0.01,-0.01 -0.11127,-0.097 -0.22017,-0.1955 -0.32769,-0.2966 -0.0998,-0.092 -0.19812,-0.1861 -0.29459,-0.2822 -0.02,-0.021 -0.0401,-0.041 -0.06,-0.061 -0.56168,-0.5686 -1.06724,-1.1991 -1.49697,-1.8912 0.007,0 0.0137,-0.01 0.0204,-0.01 -0.0556,-0.09 -0.11455,-0.1769 -0.16774,-0.2686 1.23011,-0.3927 2.4991,-0.5529 3.75184,-0.5029 1.14942,-0.05 2.29736,0.088 3.4021,0.3965 1.47223,0.4108 2.86709,1.1283 4.07953,2.1455 -0.0803,-0.092 -0.16196,-0.1815 -0.24528,-0.2702 -1.99391,-1.7822 -4.5307,-2.738 -7.11565,-2.775 -0.165,0 -0.33017,-10e-5 -0.49542,0.01 -1.19095,0.037 -2.38554,0.2694 -3.53544,0.7063 -0.20549,0.067 -0.40883,0.1405 -0.60995,0.2197 0.0527,0.099 0.1027,0.1983 0.15832,0.2952 1.94824,3.2039 5.40373,5.1764 9.14666,5.2365 0.0448,0 0.0891,0.01 0.13399,0.01 0.36878,0 0.40434,0.01 0.40653,0 h 0.3212 c 0.0104,-10e-5 0.021,0 0.0315,0 1.04013,-0.021 2.07205,-0.1888 3.06435,-0.5015 0.0792,-0.023 0.1582,-0.048 0.23684,-0.072 0.73878,-0.237 1.45022,-0.5521 2.12217,-0.9399 h 3.3e-4 c 0.44558,0.2721 0.90999,0.5121 1.38991,0.7177 0.0693,0.022 0.13887,0.043 0.20861,0.063 1.23041,0.4758 2.53687,0.7241 3.85599,0.7336 h 0.3212 c 0.002,0.01 0.0377,0 0.40653,0 3.68795,-0.01 7.12365,-1.8723 9.13335,-4.9646 0.1075,-0.1875 0.20945,-0.3782 0.30562,-0.5717 -0.20112,-0.079 -0.40448,-0.1525 -0.60995,-0.2196 -1.30947,-0.4977 -2.67684,-0.7302 -4.03086,-0.7109 -2.58495,0.037 -5.12143,0.9931 -7.11533,2.7753 -0.0833,0.089 -0.1653,0.1787 -0.2456,0.2703 3.08644,-2.5895 7.34877,-3.2674 11.08616,-1.763 -1.9163,3.0864 -5.27618,5.0163 -8.90623,5.1479 -1.4001,-0.049 -2.77779,-0.366 -4.0578,-0.9357 -0.0625,-0.033 -0.1244,-0.065 -0.18623,-0.099 -0.41007,-0.1877 -0.80826,-0.4004 -1.19199,-0.6372 -0.12278,-0.074 -0.24394,-0.1504 -0.36371,-0.2291 l 3.3e-4,-3e-4 c -2.95463,-2.032 -4.72217,-5.3862 -4.72776,-8.9721 0.005,-3.5901 1.7762,-6.9481 4.7362,-8.9796 2.9534,2.0354 4.7177,5.3927 4.71899,8.9796 -0.006,3.5859 -1.7728,6.9401 -4.72743,8.9721 0.11976,0.079 0.24094,0.1552 0.3637,0.229 3.16067,-1.9928 5.08168,-5.4646 5.09113,-9.2011 -0.002,-3.7364 -1.91596,-7.2123 -5.07264,-9.2116 -0.112,-0.071 -0.22518,-0.1401 -0.33969,-0.207 z"
       style="vector-effect:non-scaling-stroke;fill:#ffffff;stroke-width:0.192443;stroke-dashoffset:8;-inkscape-stroke:hairline"
       id="path134" />
    <path
       id="text125"
       style="font-style:normal;font-variant:normal;font-weight:normal;font-stretch:normal;font-size:7.90316px;line-height:0.418207px;font-family:'El Messiri';-inkscape-font-specification:'El Messiri';text-align:start;letter-spacing:0px;writing-mode:lr-tb;direction:rtl;text-anchor:start;vector-effect:non-scaling-stroke;fill:#ffffff;fill-opacity:1;stroke:none;stroke-width:0.0209104;stroke-dashoffset:8;-inkscape-stroke:hairline"
       d="m -157.81635,1518.9699 c -0.17914,0 -0.3344,0.031 -0.46612,0.095 -0.12645,0.063 -0.22399,0.1528 -0.29249,0.2687 -0.0632,0.1107 -0.0951,0.2371 -0.0951,0.3793 0,0.1423 0.0294,0.2767 0.0873,0.4031 0.0632,0.1212 0.12094,0.2108 0.17363,0.2687 -0.0527,-0.021 -0.10544,-0.026 -0.15813,-0.015 -0.0527,0.01 -0.0975,0.026 -0.13436,0.063 -0.0316,0.032 -0.05,0.076 -0.0553,0.1343 -0.005,0.053 0.0161,0.1109 0.0636,0.1742 0.0105,-0.016 0.0498,-0.032 0.11834,-0.048 0.0685,-0.016 0.15259,-0.032 0.2527,-0.048 0.10537,-0.016 0.21885,-0.032 0.34003,-0.048 0.12645,-0.016 0.25534,-0.031 0.38706,-0.047 0.13172,-0.016 0.25812,-0.029 0.3793,-0.04 0.0316,0 0.0555,-0.024 0.0713,-0.071 0.0158,-0.047 0.0133,-0.095 -0.008,-0.1421 -0.0158,-0.047 -0.0661,-0.071 -0.15037,-0.071 -0.0211,0.01 -0.0554,0.013 -0.10284,0.023 -0.0474,0.01 -0.10266,0.01 -0.16588,0.01 -0.079,0 -0.1711,-0.013 -0.27647,-0.04 -0.10011,-0.026 -0.1872,-0.082 -0.26097,-0.1658 -0.0738,-0.09 -0.11058,-0.224 -0.11058,-0.4031 0,-0.1528 0.0264,-0.2688 0.0791,-0.3478 0.058,-0.079 0.11319,-0.1238 0.16588,-0.1344 0.0738,0.011 0.14493,0.045 0.21343,0.1029 0.0738,0.053 0.1081,0.1318 0.10283,0.2372 0.0264,0.021 0.0657,0.032 0.11834,0.032 0.0527,-0.01 0.10048,-0.026 0.14263,-0.063 0.0474,-0.042 0.0708,-0.1054 0.0708,-0.1897 0,-0.037 -0.0104,-0.079 -0.0315,-0.1266 -0.0158,-0.047 -0.0581,-0.09 -0.12661,-0.1266 -0.0685,-0.042 -0.17896,-0.063 -0.33176,-0.063 z m -23.48797,1.6123 c -0.079,0 -0.15568,0.01 -0.22944,0.032 -0.0738,0.021 -0.13697,0.047 -0.18966,0.079 -0.0474,0.032 -0.0818,0.061 -0.10283,0.087 0.0632,0.042 0.12942,0.1079 0.19792,0.1975 0.0685,0.09 0.12373,0.2005 0.16588,0.3322 0.0474,0.1318 0.0708,0.2791 0.0708,0.4424 v 3.4933 h -0.90072 -1.20923 -1.20923 -1.20923 -1.20923 -0.28422 c -0.15806,0 -0.28995,-0.047 -0.39532,-0.1421 -0.10538,-0.095 -0.18451,-0.2138 -0.2372,-0.3561 -0.0474,-0.1422 -0.0708,-0.287 -0.0708,-0.4346 v -1.9595 c 0,-0.1317 -0.0344,-0.2213 -0.10284,-0.2687 -0.0685,-0.053 -0.15311,-0.079 -0.25322,-0.079 -0.1001,0 -0.1842,0.026 -0.25269,0.079 -0.0685,0.047 -0.10284,0.137 -0.10284,0.2687 v 1.9595 c 0,0.1476 -0.0264,0.2924 -0.0791,0.4346 -0.0474,0.1423 -0.12356,0.2613 -0.22893,0.3561 -0.10011,0.095 -0.23199,0.1421 -0.39533,0.1421 h -0.0475 -0.18965 c -0.15806,0 -0.28943,-0.047 -0.39481,-0.1421 -0.10537,-0.095 -0.18451,-0.2138 -0.23719,-0.3561 -0.0474,-0.1422 -0.0713,-0.287 -0.0713,-0.4346 v -1.7146 c 0,-0.1317 -0.0343,-0.2213 -0.10283,-0.2687 -0.0685,-0.053 -0.15259,-0.079 -0.2527,-0.079 -0.10011,0 -0.1842,0.026 -0.2527,0.079 -0.0685,0.047 -0.10283,0.137 -0.10283,0.2687 v 1.7146 c 0,0.1476 -0.0264,0.2924 -0.0791,0.4346 -0.0474,0.1423 -0.12407,0.2613 -0.22944,0.3561 -0.10011,0.095 -0.23148,0.1421 -0.39481,0.1421 h -0.12661 -0.11059 c -0.15806,0 -0.28994,-0.047 -0.39532,-0.1421 -0.10538,-0.095 -0.18451,-0.2138 -0.23719,-0.3561 -0.0474,-0.1422 -0.0708,-0.287 -0.0708,-0.4346 v -1.5249 c 0,-0.1317 -0.0343,-0.2213 -0.10284,-0.2687 -0.0685,-0.053 -0.15311,-0.079 -0.25321,-0.079 -0.10011,0 -0.18421,0.026 -0.2527,0.079 -0.0685,0.047 -0.10284,0.137 -0.10284,0.2687 v 3.082 c 0,0.4952 -0.10499,0.8486 -0.31574,1.0593 -0.20548,0.216 -0.54042,0.324 -1.00407,0.324 -0.47419,0 -0.85889,-0.1134 -1.15394,-0.34 -0.28978,-0.2213 -0.4346,-0.5821 -0.4346,-1.0826 0,-0.137 0.0159,-0.2953 0.0476,-0.4744 0.0369,-0.1844 0.10256,-0.374 0.1974,-0.569 0.0948,-0.1949 0.23717,-0.3716 0.42685,-0.5296 -0.0264,-0.026 -0.0607,-0.05 -0.10284,-0.071 -0.0369,-0.026 -0.0817,-0.048 -0.13436,-0.064 -0.0527,-0.016 -0.11289,-0.024 -0.18138,-0.024 -0.19495,0 -0.35569,0.069 -0.48214,0.2057 -0.12118,0.1317 -0.21873,0.2979 -0.29249,0.4982 -0.0685,0.1949 -0.11877,0.3925 -0.15038,0.5927 -0.0263,0.1949 -0.0393,0.3582 -0.0393,0.4899 0,0.3583 0.0871,0.6822 0.26096,0.972 0.17914,0.2951 0.43991,0.527 0.78238,0.6956 0.34774,0.1686 0.76926,0.2527 1.26453,0.2527 0.70601,0 1.21959,-0.1767 1.54099,-0.5297 0.32139,-0.3477 0.48214,-0.8165 0.48214,-1.4066 v -0.2455 c 0.20847,0.1148 0.44221,0.1747 0.70331,0.1747 h 0.11059 0.12661 c 0.27924,0 0.52409,-0.064 0.73484,-0.1902 0.12417,-0.078 0.23093,-0.1724 0.32401,-0.2811 0.0931,0.1087 0.19983,0.2035 0.32401,0.2811 0.21602,0.1264 0.46086,0.1902 0.73484,0.1902 h 0.18965 0.0475 c 0.27925,0 0.52409,-0.064 0.73484,-0.1902 0.12424,-0.078 0.23142,-0.1724 0.32453,-0.2811 0.0931,0.1086 0.19935,0.2035 0.3235,0.2811 0.21602,0.1264 0.46138,0.1902 0.73535,0.1902 h 0.28422 1.20923 1.20923 1.20923 1.20923 4.19664 c 0.32139,0 0.58765,-0.05 0.7984,-0.1504 0.19756,-0.092 0.35278,-0.2132 0.47542,-0.3576 0.0996,0.1245 0.21607,0.2316 0.35399,0.3178 0.21602,0.1264 0.46138,0.1902 0.73535,0.1902 h 0.28422 0.52969 c 0.49526,0 0.88244,-0.1687 1.16168,-0.5059 0.27925,-0.3425 0.4191,-0.8168 0.4191,-1.4227 0,-0.1844 -0.0159,-0.3845 -0.0475,-0.6005 -0.0316,-0.216 -0.0844,-0.4191 -0.15813,-0.6087 -0.0738,-0.195 -0.17379,-0.3532 -0.30024,-0.4744 -0.12119,-0.1212 -0.27397,-0.1814 -0.45837,-0.1814 -0.0685,0 -0.12922,0.01 -0.18191,0.024 -0.0527,0.016 -0.1,0.037 -0.14211,0.063 -0.0369,0.021 -0.0687,0.044 -0.0951,0.071 0.21075,0.1739 0.36105,0.3665 0.45062,0.5772 0.0948,0.2108 0.15556,0.4138 0.1819,0.6088 0.0263,0.1949 0.0393,0.3631 0.0393,0.5054 0,0.047 -0.002,0.1265 -0.008,0.2372 -0.005,0.1053 -0.0237,0.2238 -0.0553,0.3555 -0.0264,0.1317 -0.0711,0.2581 -0.13436,0.3793 -0.058,0.1212 -0.14257,0.2217 -0.25321,0.3008 -0.11065,0.079 -0.24998,0.1183 -0.41858,0.1183 h -0.52969 -0.28422 c -0.15806,0 -0.28995,-0.047 -0.39532,-0.1421 -0.10538,-0.095 -0.18451,-0.2138 -0.2372,-0.3561 -0.0474,-0.1422 -0.0713,-0.287 -0.0713,-0.4346 v -0.2051 l -0.003,5e-4 c 2.1e-4,-0.014 0.003,-0.027 0.003,-0.04 0,-0.3635 -0.0632,-0.6741 -0.18965,-0.9322 -0.12119,-0.2582 -0.2869,-0.4717 -0.49765,-0.6403 -0.20548,-0.1686 -0.43191,-0.2925 -0.67954,-0.3716 -0.24237,-0.079 -0.48773,-0.1183 -0.73536,-0.1183 -0.28451,0 -0.54528,0.047 -0.78238,0.1421 -0.23709,0.09 -0.44759,0.208 -0.632,0.3555 -0.17914,0.1476 -0.33192,0.3083 -0.45837,0.4822 -0.11791,0.1572 -0.20578,0.3093 -0.26872,0.4573 v -1.9828 c 0,-0.2318 -0.0319,-0.411 -0.0951,-0.5374 -0.0632,-0.1265 -0.14184,-0.2131 -0.23668,-0.2605 -0.0948,-0.053 -0.19238,-0.079 -0.29249,-0.079 z m 7.02593,0 c -0.13172,0 -0.24271,0.045 -0.33228,0.1344 -0.0896,0.09 -0.13436,0.1976 -0.13436,0.324 0,0.1212 0.0448,0.2267 0.13436,0.3163 0.0896,0.09 0.20056,0.1343 0.33228,0.1343 0.12118,0 0.22617,-0.045 0.31574,-0.1343 0.0896,-0.09 0.13436,-0.1951 0.13436,-0.3163 0,-0.1264 -0.0448,-0.2344 -0.13436,-0.324 -0.0896,-0.09 -0.19456,-0.1344 -0.31574,-0.1344 z m 2.37091,0 c -0.079,0 -0.15568,0.01 -0.22944,0.032 -0.0738,0.021 -0.13697,0.047 -0.18965,0.079 -0.0474,0.032 -0.0818,0.061 -0.10284,0.087 0.0632,0.042 0.12943,0.1079 0.19792,0.1975 0.0685,0.09 0.12373,0.2005 0.16588,0.3322 0.0474,0.1318 0.0708,0.2791 0.0708,0.4424 v 2.5605 c 0,0.2846 0.0607,0.5404 0.1819,0.7669 0.12118,0.2213 0.28741,0.3975 0.49816,0.5292 0.21602,0.1264 0.46086,0.1902 0.73484,0.1902 h 0.24495 1.20922 1.20923 1.20923 1.20923 1.20923 1.20923 2.41019 c 0.2529,0 0.48481,-0.053 0.69556,-0.1582 0.21602,-0.1053 0.3897,-0.282 0.52142,-0.5296 0.13171,-0.253 0.19792,-0.5904 0.19792,-1.0119 0,-0.3161 -0.0448,-0.6033 -0.13436,-0.8614 -0.0843,-0.2582 -0.21867,-0.4791 -0.40308,-0.6635 -0.17914,-0.1845 -0.41353,-0.3243 -0.70331,-0.4191 -0.28979,-0.1001 -0.63766,-0.1499 -1.04335,-0.1499 -0.10538,0 -0.20292,0 -0.29249,0.01 -0.0896,0.01 -0.17118,0.011 -0.24495,0.016 -0.0685,0.01 -0.12921,0.01 -0.1819,0.01 -0.15279,0 -0.27371,-0.024 -0.36328,-0.071 -0.0896,-0.047 -0.16074,-0.09 -0.21343,-0.1266 -0.005,0.021 -0.005,0.063 0,0.1266 l 0.0315,0.1742 c 0.0211,0.09 0.0499,0.1711 0.0868,0.2449 0.0421,0.069 0.10287,0.1213 0.1819,0.1581 0.079,0.037 0.18154,0.055 0.30799,0.055 0.0632,0 0.12943,0 0.19793,-0.01 0.0685,-0.011 0.14462,-0.019 0.22892,-0.024 0.0843,-0.01 0.17936,-0.01 0.28474,-0.01 0.50053,0 0.88223,0.1135 1.14567,0.3401 0.2687,0.2265 0.40307,0.6296 0.40307,1.2092 0,0.4162 -0.0632,0.7113 -0.18965,0.8852 -0.12645,0.1686 -0.29764,0.2527 -0.51366,0.2527 h -2.41019 -1.20923 -1.20923 -1.20923 -1.20923 -1.20923 -1.20922 -0.24495 c -0.15806,0 -0.28995,-0.047 -0.39533,-0.1421 -0.10537,-0.095 -0.18399,-0.2138 -0.23667,-0.3561 -0.0474,-0.1422 -0.0713,-0.287 -0.0713,-0.4346 v -2.853 c 0,-0.2318 -0.0319,-0.411 -0.0951,-0.5374 -0.0632,-0.1265 -0.14184,-0.2131 -0.23668,-0.2605 -0.0948,-0.053 -0.19238,-0.079 -0.29249,-0.079 z m 13.96452,0.4822 c -0.079,0 -0.15516,0.01 -0.22892,0.032 -0.0738,0.021 -0.13697,0.047 -0.18966,0.079 -0.0474,0.032 -0.0818,0.06 -0.10283,0.087 0.0632,0.042 0.12891,0.1078 0.1974,0.1974 0.0685,0.09 0.12425,0.2006 0.1664,0.3323 0.0474,0.1317 0.0708,0.279 0.0708,0.4423 v 3.0588 c 0,0.1369 0.0159,0.2554 0.0475,0.3555 0.0316,0.1001 0.13164,0.1504 0.30024,0.1504 0.1686,0 0.27163,-0.05 0.30851,-0.1504 0.0369,-0.1001 0.0553,-0.2186 0.0553,-0.3555 v -3.3513 c 0,-0.2318 -0.0319,-0.4109 -0.0951,-0.5374 -0.0632,-0.1265 -0.14236,-0.213 -0.2372,-0.2604 -0.0948,-0.053 -0.19238,-0.079 -0.29249,-0.079 z m -20.77702,1.4934 c 0.24236,0 0.48472,0.053 0.72709,0.1582 0.24236,0.1053 0.44241,0.2661 0.60048,0.4821 0.16333,0.216 0.24494,0.4927 0.24494,0.8299 0,0.1844 -0.0368,0.3716 -0.11059,0.5612 -0.0738,0.1844 -0.20265,0.3397 -0.38705,0.4662 -0.17914,0.1264 -0.42947,0.1896 -0.75086,0.1896 h -2.2841 v -1.2097 c 0.032,-0.066 0.0562,-0.1244 0.10284,-0.2052 0.079,-0.137 0.17657,-0.2788 0.29249,-0.4263 0.12118,-0.1475 0.25803,-0.2849 0.41082,-0.4114 0.15807,-0.1317 0.33174,-0.2367 0.52142,-0.3157 0.19494,-0.079 0.40596,-0.1189 0.63252,-0.1189 z m 17.31574,3.8727 c -0.13172,0 -0.24271,0.045 -0.33228,0.1343 -0.0896,0.09 -0.13384,0.1976 -0.13384,0.324 0,0.1212 0.0443,0.2267 0.13384,0.3163 0.0896,0.09 0.20056,0.1344 0.33228,0.1344 0.12118,0 0.22669,-0.045 0.31626,-0.1344 0.0896,-0.09 0.13436,-0.1951 0.13436,-0.3163 0,-0.1264 -0.0448,-0.2344 -0.13436,-0.324 -0.0896,-0.09 -0.19508,-0.1343 -0.31626,-0.1343 z m 2.34249,2.3373 c -0.042,0 -0.0785,0.015 -0.10904,0.046 -0.0286,0.029 -0.0429,0.064 -0.0429,0.1059 0,0.042 0.0142,0.079 0.0429,0.1091 0.0306,0.029 0.067,0.043 0.10904,0.043 0.042,0 0.0773,-0.014 0.10594,-0.043 0.0306,-0.031 0.046,-0.067 0.046,-0.1091 0,-0.042 -0.0154,-0.077 -0.046,-0.1059 -0.0286,-0.031 -0.0639,-0.046 -0.10594,-0.046 z m -32.63057,0.3411 c -0.0478,0 -0.0879,0.016 -0.1204,0.049 -0.0325,0.033 -0.0486,0.072 -0.0486,0.1179 0,0.044 0.0161,0.082 0.0486,0.1142 0.0325,0.032 0.0727,0.049 0.1204,0.049 0.0439,0 0.0822,-0.017 0.11472,-0.049 0.0325,-0.033 0.0486,-0.07 0.0486,-0.1142 0,-0.046 -0.0161,-0.085 -0.0486,-0.1179 -0.0325,-0.032 -0.0708,-0.049 -0.11472,-0.049 z m 1.30638,0 c -0.0286,0 -0.0565,0 -0.0832,0.011 -0.0248,0.01 -0.0465,0.017 -0.0656,0.029 -0.0172,0.011 -0.0296,0.022 -0.0372,0.031 0.0229,0.015 0.0465,0.039 0.0713,0.071 0.0248,0.033 0.0452,0.073 0.0605,0.1204 0.0172,0.048 0.0258,0.1015 0.0258,0.1607 v 0.9281 c 0,0.053 -0.01,0.1061 -0.0289,0.1576 -0.0172,0.052 -0.0445,0.094 -0.0827,0.1287 -0.0363,0.034 -0.0845,0.052 -0.14366,0.052 h -0.0713 -0.10336 c -0.0573,0 -0.10494,-0.017 -0.14314,-0.052 -0.0382,-0.034 -0.0667,-0.077 -0.0858,-0.1287 -0.0172,-0.052 -0.0258,-0.1041 -0.0258,-0.1576 v -0.1462 h -5.2e-4 c 1e-5,0 5.2e-4,0 5.2e-4,-0.01 0,-0.1089 -0.0142,-0.2053 -0.0429,-0.2894 -0.0267,-0.084 -0.0669,-0.1558 -0.12041,-0.215 -0.0535,-0.059 -0.11774,-0.1038 -0.19224,-0.1343 -0.0726,-0.031 -0.15481,-0.046 -0.24649,-0.046 -0.0669,0 -0.12755,0.01 -0.18294,0.026 -0.0554,0.015 -0.10422,0.037 -0.14624,0.066 -0.0401,0.027 -0.0717,0.06 -0.0946,0.1002 -0.021,0.038 -0.0315,0.08 -0.0315,0.1261 0,0.044 0.009,0.078 0.0284,0.1028 0.0191,0.025 0.0413,0.043 0.0661,0.054 0.021,0.01 0.0439,0.016 0.0687,0.02 0.0267,0 0.0478,0 0.063,0 0,-0.071 0.013,-0.127 0.0398,-0.169 0.0267,-0.042 0.0644,-0.074 0.11214,-0.097 0.0216,-0.01 0.0485,-0.015 0.0724,-0.023 0.0573,-4e-4 0.11038,0.01 0.15399,0.029 0.0649,0.031 0.11326,0.083 0.14573,0.1576 0.0325,0.074 0.0491,0.1691 0.0491,0.2837 0,0.1547 -0.0309,0.2766 -0.092,0.3664 -0.0611,0.088 -0.15081,0.1318 -0.26924,0.1318 h -0.38395 c -0.0363,0 -0.0617,0.011 -0.077,0.032 -0.0134,0.019 -0.0202,0.042 -0.0202,0.069 0,0.027 0.007,0.051 0.0202,0.072 0.0153,0.019 0.0407,0.028 0.077,0.028 h 0.38395 c 0.11079,0 0.21285,-0.024 0.30645,-0.071 0.0616,-0.033 0.11275,-0.081 0.15864,-0.1359 0.0392,0.054 0.085,0.1025 0.14263,0.1385 0.0783,0.046 0.16681,0.069 0.26613,0.069 h 0.10336 0.0713 c 0.10123,0 0.19025,-0.023 0.26665,-0.069 0.0764,-0.048 0.13642,-0.1115 0.18035,-0.1918 0.0439,-0.082 0.0662,-0.1748 0.0662,-0.278 v -1.034 c 0,-0.084 -0.0117,-0.149 -0.0346,-0.1948 -0.0229,-0.046 -0.0526,-0.077 -0.0889,-0.095 -0.0344,-0.019 -0.0696,-0.029 -0.10594,-0.029 z m 0.74776,0 c -0.0286,0 -0.0565,0 -0.0832,0.011 -0.0267,0.01 -0.0496,0.017 -0.0687,0.029 -0.0172,0.011 -0.0296,0.022 -0.0372,0.031 0.0229,0.015 0.047,0.039 0.0718,0.071 0.0248,0.033 0.0447,0.073 0.0599,0.1204 0.0172,0.048 0.0258,0.1015 0.0258,0.1607 v 1.2837 c 0,0.05 0.006,0.092 0.0176,0.1286 0.0115,0.036 0.0474,0.054 0.10852,0.054 0.0611,0 0.0983,-0.018 0.11162,-0.054 0.0134,-0.036 0.0202,-0.079 0.0202,-0.1286 v -1.3896 c 0,-0.084 -0.0112,-0.149 -0.0341,-0.1948 -0.0229,-0.046 -0.0519,-0.077 -0.0863,-0.095 -0.0344,-0.019 -0.0696,-0.029 -0.10594,-0.029 z m 1.64745,0 c -0.0439,0 -0.0823,0.016 -0.11473,0.049 -0.0325,0.033 -0.0486,0.072 -0.0486,0.1179 0,0.044 0.0161,0.082 0.0486,0.1142 0.0325,0.032 0.0708,0.049 0.11473,0.049 0.0458,0 0.0842,-0.017 0.11472,-0.049 0.0325,-0.033 0.0486,-0.07 0.0486,-0.1142 0,-0.046 -0.0161,-0.085 -0.0486,-0.1179 -0.0306,-0.032 -0.0689,-0.049 -0.11472,-0.049 z m 0.41857,0 c -0.0439,0 -0.0823,0.016 -0.11472,0.049 -0.0325,0.033 -0.0486,0.072 -0.0486,0.1179 0,0.044 0.0161,0.082 0.0486,0.1142 0.0325,0.032 0.0708,0.049 0.11472,0.049 0.0459,0 0.0837,-0.017 0.11421,-0.049 0.0325,-0.033 0.0491,-0.07 0.0491,-0.1142 0,-0.046 -0.0166,-0.085 -0.0491,-0.1179 -0.0306,-0.032 -0.0684,-0.049 -0.11421,-0.049 z m 0.90796,0 c -0.0478,0 -0.0879,0.016 -0.12041,0.049 -0.0325,0.033 -0.0486,0.072 -0.0486,0.1179 0,0.044 0.0161,0.082 0.0486,0.1142 0.0325,0.032 0.0727,0.049 0.12041,0.049 0.0439,0 0.0822,-0.017 0.11472,-0.049 0.0325,-0.033 0.0486,-0.07 0.0486,-0.1142 0,-0.046 -0.0161,-0.085 -0.0486,-0.1179 -0.0325,-0.032 -0.0708,-0.049 -0.11472,-0.049 z m 0.8599,0 c -0.0287,0 -0.0565,0 -0.0832,0.011 -0.0267,0.01 -0.0496,0.017 -0.0687,0.029 -0.0172,0.011 -0.0296,0.022 -0.0372,0.031 0.0229,0.015 0.0465,0.039 0.0713,0.071 0.0248,0.033 0.0452,0.073 0.0605,0.1204 0.0172,0.048 0.0258,0.1015 0.0258,0.1607 v 0.9281 c 0,0.1032 0.0217,0.1959 0.0656,0.278 0.0439,0.08 0.10395,0.144 0.18035,0.1918 0.0783,0.046 0.16733,0.069 0.26665,0.069 h 0.0889 0.43821 0.43822 0.43873 0.43822 0.43821 0.43822 0.43873 0.43822 0.43822 0.43873 0.0713 c 0.10123,0 0.19025,-0.023 0.26665,-0.069 0.0455,-0.029 0.0833,-0.064 0.11731,-0.1044 0.034,0.04 0.0718,0.076 0.1173,0.1044 0.0783,0.046 0.16733,0.069 0.26665,0.069 h 0.10336 1.49551 c 0.16427,0 0.29041,-0.053 0.37827,-0.1576 0.0898,-0.107 0.13436,-0.2567 0.13436,-0.4496 0,-0.2445 -0.0668,-0.4337 -0.2005,-0.5674 -0.13371,-0.1337 -0.32106,-0.2005 -0.56172,-0.2005 -0.13753,0 -0.25197,0.02 -0.34365,0.06 -0.0917,0.04 -0.16713,0.093 -0.22635,0.1602 -0.0592,0.065 -0.10617,0.1355 -0.14056,0.2119 -0.008,0.018 -0.0122,0.036 -0.0196,0.054 v -0.014 c 0,-0.067 -0.008,-0.1213 -0.0233,-0.1633 -0.0153,-0.042 -0.0351,-0.075 -0.0599,-0.098 -0.0229,-0.023 -0.0477,-0.039 -0.0744,-0.049 -0.0267,-0.01 -0.052,-0.014 -0.0749,-0.014 -0.0363,0 -0.0697,0.01 -0.10025,0.023 -0.0306,0.013 -0.0534,0.026 -0.0687,0.04 0.0325,0.025 0.064,0.062 0.0946,0.1121 0.0325,0.05 0.0491,0.101 0.0491,0.1545 v 0.6961 h -0.25786 -0.10336 c -0.0573,0 -0.10494,-0.017 -0.14314,-0.052 -0.0382,-0.034 -0.0672,-0.077 -0.0863,-0.1287 -0.0172,-0.052 -0.0253,-0.1041 -0.0253,-0.1576 v -0.7105 c 0,-0.048 -0.0129,-0.08 -0.0377,-0.097 -0.0248,-0.019 -0.0552,-0.029 -0.0915,-0.029 -0.0363,0 -0.0666,0.01 -0.0915,0.029 -0.0248,0.017 -0.0372,0.049 -0.0372,0.097 v 0.7105 c 0,0.053 -0.01,0.1061 -0.0289,0.1576 -0.0172,0.052 -0.045,0.094 -0.0832,0.1287 -0.0363,0.034 -0.0839,0.052 -0.14315,0.052 h -0.0713 -0.43873 -0.43822 -0.43822 -0.43873 -0.43822 -0.43821 -0.43822 -0.43873 -0.43822 -0.43821 -0.0889 c -0.0573,0 -0.10494,-0.017 -0.14314,-0.052 -0.0382,-0.034 -0.0672,-0.077 -0.0863,-0.1287 -0.0172,-0.052 -0.0253,-0.1041 -0.0253,-0.1576 v -1.034 c 0,-0.084 -0.0117,-0.149 -0.0346,-0.1948 -0.0229,-0.046 -0.0514,-0.077 -0.0858,-0.095 -0.0344,-0.019 -0.0696,-0.029 -0.10593,-0.029 z m 21.04936,0 c -0.0286,0 -0.0565,0 -0.0832,0.011 -0.0267,0.01 -0.0496,0.017 -0.0687,0.029 -0.0172,0.011 -0.0296,0.022 -0.0372,0.031 0.0229,0.015 0.047,0.039 0.0718,0.071 0.0248,0.033 0.0447,0.073 0.06,0.1204 0.0172,0.048 0.0258,0.1015 0.0258,0.1607 v 1.2837 c 0,0.05 0.006,0.092 0.0176,0.1286 0.0115,0.036 0.0474,0.054 0.10852,0.054 0.0611,0 0.0983,-0.018 0.11163,-0.054 0.0134,-0.036 0.0202,-0.079 0.0202,-0.1286 v -1.3896 c 0,-0.084 -0.0112,-0.149 -0.0341,-0.1948 -0.0229,-0.046 -0.0519,-0.077 -0.0863,-0.095 -0.0344,-0.019 -0.0696,-0.029 -0.10593,-0.029 z m 5.4839,0 c -0.0439,0 -0.0822,0.016 -0.11472,0.049 -0.0325,0.033 -0.0486,0.071 -0.0486,0.1148 0,0.046 0.0161,0.085 0.0486,0.1173 0.0325,0.032 0.0708,0.049 0.11472,0.049 0.0458,0 0.0842,-0.017 0.11472,-0.049 0.0325,-0.033 0.0486,-0.072 0.0486,-0.1173 0,-0.044 -0.0161,-0.082 -0.0486,-0.1148 -0.0306,-0.032 -0.0689,-0.049 -0.11472,-0.049 z m 0.41806,0 c -0.0439,0 -0.0817,0.016 -0.1142,0.049 -0.0325,0.033 -0.0491,0.071 -0.0491,0.1148 0,0.046 0.0166,0.085 0.0491,0.1173 0.0325,0.032 0.0703,0.049 0.1142,0.049 0.0458,0 0.0842,-0.017 0.11472,-0.049 0.0325,-0.033 0.0486,-0.072 0.0486,-0.1173 0,-0.044 -0.0161,-0.082 -0.0486,-0.1148 -0.0306,-0.032 -0.0689,-0.049 -0.11472,-0.049 z m 1.48725,0 c -0.0286,0 -0.0565,0 -0.0832,0.011 -0.0248,0.01 -0.0465,0.017 -0.0656,0.029 -0.0172,0.011 -0.0296,0.022 -0.0372,0.031 0.0229,0.015 0.0465,0.039 0.0713,0.071 0.0248,0.033 0.0452,0.073 0.0605,0.1204 0.0172,0.048 0.0253,0.1015 0.0253,0.1607 v 0.9281 c 0,0.053 -0.009,0.1061 -0.0284,0.1576 -0.0172,0.052 -0.045,0.094 -0.0832,0.1287 -0.0363,0.034 -0.0839,0.052 -0.14314,0.052 h -0.0718 -0.10284 c -0.0573,0 -0.10494,-0.017 -0.14314,-0.052 -0.0382,-0.034 -0.0672,-0.077 -0.0863,-0.1287 -0.0172,-0.052 -0.0258,-0.1041 -0.0258,-0.1576 v -0.7105 c 0,-0.048 -0.0124,-0.08 -0.0372,-0.097 -0.0248,-0.019 -0.0552,-0.029 -0.0915,-0.029 -0.0363,0 -0.0671,0.01 -0.092,0.029 -0.0248,0.017 -0.0372,0.049 -0.0372,0.097 v 0.7105 c 0,0.053 -0.009,0.1061 -0.0284,0.1576 -0.0172,0.052 -0.045,0.094 -0.0832,0.1287 -0.0363,0.034 -0.0839,0.052 -0.14314,0.052 h -0.0171 -0.0687 c -0.0573,0 -0.10546,-0.017 -0.14367,-0.052 -0.0382,-0.034 -0.0667,-0.077 -0.0858,-0.1287 -0.0172,-0.052 -0.0258,-0.1041 -0.0258,-0.1576 v -0.6216 c 0,-0.048 -0.0124,-0.081 -0.0372,-0.098 -0.0248,-0.019 -0.0552,-0.028 -0.0915,-0.028 -0.0363,0 -0.0671,0.01 -0.092,0.028 -0.0248,0.017 -0.0372,0.05 -0.0372,0.098 v 0.6216 c 0,0.053 -0.009,0.1061 -0.0284,0.1576 -0.0172,0.052 -0.045,0.094 -0.0832,0.1287 -0.0363,0.034 -0.0839,0.052 -0.14315,0.052 h -0.046 -0.0403 c -0.0573,0 -0.10494,-0.017 -0.14314,-0.052 -0.0382,-0.034 -0.0667,-0.077 -0.0858,-0.1287 -0.0172,-0.052 -0.0258,-0.1041 -0.0258,-0.1576 v -0.5529 c 0,-0.048 -0.0124,-0.081 -0.0372,-0.098 -0.0248,-0.019 -0.0552,-0.028 -0.0915,-0.028 -0.0363,0 -0.0671,0.01 -0.092,0.028 -0.0248,0.017 -0.0372,0.05 -0.0372,0.098 v 0.5529 c 0,0.053 -0.009,0.1061 -0.0284,0.1576 -0.0172,0.052 -0.045,0.094 -0.0832,0.1287 -0.0363,0.034 -0.0839,0.052 -0.14314,0.052 h -0.10335 -0.43822 -0.43873 -0.43822 -0.43822 -0.43821 -0.43873 -0.43822 -0.35502 v -1.0485 c 0,-0.048 -0.0124,-0.08 -0.0372,-0.097 -0.0248,-0.019 -0.0557,-0.029 -0.092,-0.029 -0.0363,0 -0.0666,0.01 -0.0915,0.029 -0.0248,0.017 -0.0372,0.049 -0.0372,0.097 v 1.249 c 0,0.05 -0.005,0.109 -0.0145,0.1778 -0.01,0.071 -0.0318,0.1424 -0.0662,0.2149 -0.0325,0.073 -0.0869,0.1413 -0.1633,0.2062 0.01,0.01 0.0213,0.016 0.0346,0.026 0.0153,0.01 0.0326,0.017 0.0517,0.023 0.0191,0.01 0.0408,0.01 0.0656,0.01 0.0669,0 0.12247,-0.021 0.1664,-0.063 0.0458,-0.042 0.0818,-0.096 0.10852,-0.1633 0.0267,-0.067 0.0459,-0.1385 0.0574,-0.2149 0.0115,-0.076 0.0176,-0.1482 0.0176,-0.215 h 0.35502 0.43822 0.43873 0.43821 0.43822 0.43822 0.43873 0.43822 0.10335 c 0.10123,0 0.18973,-0.023 0.26613,-0.069 0.0457,-0.029 0.0837,-0.065 0.11782,-0.1049 0.0341,0.04 0.0717,0.076 0.11731,0.1049 0.0783,0.046 0.16681,0.069 0.26613,0.069 h 0.0403 0.046 c 0.10124,0 0.18973,-0.023 0.26614,-0.069 0.0455,-0.029 0.0838,-0.064 0.11782,-0.1044 0.034,0.04 0.0718,0.076 0.1173,0.1044 0.0783,0.046 0.16733,0.069 0.26666,0.069 h 0.0687 0.0171 c 0.10123,0 0.19025,-0.023 0.26665,-0.069 0.0455,-0.029 0.0833,-0.064 0.1173,-0.1044 0.034,0.04 0.0718,0.076 0.11731,0.1044 0.0783,0.046 0.16733,0.069 0.26665,0.069 h 0.10284 0.0718 c 0.10123,0 0.19024,-0.023 0.26665,-0.069 0.0764,-0.048 0.13642,-0.1115 0.18035,-0.1918 0.0439,-0.082 0.0656,-0.1748 0.0656,-0.278 v -1.034 c 0,-0.084 -0.0112,-0.149 -0.0341,-0.1948 -0.0229,-0.046 -0.0526,-0.077 -0.0889,-0.095 -0.0344,-0.019 -0.0696,-0.029 -0.10594,-0.029 z m -36.63032,0.1777 c -0.002,0.01 -0.002,0.023 0,0.046 l 0.0119,0.063 c 0.008,0.031 0.0182,0.059 0.0315,0.086 0.0134,0.025 0.0344,0.045 0.063,0.06 0.0286,0.013 0.0677,0.02 0.11731,0.02 0.0344,0 0.0684,0 0.10283,-0.01 0.0363,-0.01 0.0931,-0.01 0.1695,-0.01 0.16236,0 0.29596,0.019 0.40101,0.057 0.10505,0.036 0.18304,0.1013 0.23461,0.1949 0.0516,0.092 0.0775,0.2208 0.0775,0.387 0,0.1796 -0.0303,0.3267 -0.0915,0.4413 -0.0592,0.1146 -0.14823,0.1716 -0.26665,0.1716 h -0.15451 c -0.0667,0 -0.1201,-0.011 -0.17364,-0.022 0.0206,-0.022 0.0441,-0.041 0.0615,-0.067 0.0707,-0.1031 0.10645,-0.2367 0.10645,-0.401 0,-0.099 -0.0148,-0.1878 -0.0434,-0.2661 -0.0267,-0.078 -0.0688,-0.1407 -0.12609,-0.1866 -0.0573,-0.048 -0.12969,-0.071 -0.21756,-0.071 -0.0879,0 -0.16025,0.024 -0.21755,0.071 -0.0573,0.046 -0.10054,0.1083 -0.12919,0.1866 -0.0267,0.078 -0.0398,0.1668 -0.0398,0.2661 0,0.1643 0.0353,0.2979 0.10593,0.401 0.018,0.026 0.0416,0.044 0.0625,0.067 -0.0537,0.011 -0.10708,0.022 -0.17415,0.022 h -0.10904 -0.43821 -0.43874 -0.0713 c -0.0573,0 -0.10494,-0.017 -0.14314,-0.052 -0.0382,-0.034 -0.0672,-0.077 -0.0863,-0.1287 -0.0172,-0.052 -0.0258,-0.1041 -0.0258,-0.1576 v -0.5586 c 0,-0.048 -0.0124,-0.08 -0.0372,-0.098 -0.0248,-0.019 -0.0552,-0.028 -0.0915,-0.028 -0.0363,0 -0.0672,0.01 -0.092,0.028 -0.0248,0.017 -0.0372,0.05 -0.0372,0.098 v 0.5586 c 0,0.053 -0.009,0.1061 -0.0284,0.1576 -0.0172,0.052 -0.045,0.094 -0.0832,0.1287 -0.0363,0.034 -0.0839,0.052 -0.14314,0.052 h -0.67334 c -0.0611,0 -0.11182,-0.014 -0.15193,-0.043 -0.0401,-0.029 -0.0716,-0.065 -0.0946,-0.109 -0.021,-0.044 -0.0371,-0.09 -0.0486,-0.1375 -0.01,-0.048 -0.0151,-0.091 -0.0171,-0.1287 -0.002,-0.04 -0.003,-0.069 -0.003,-0.086 0,-0.051 0.005,-0.1122 0.0145,-0.1829 0.01,-0.071 0.0312,-0.1443 0.0656,-0.2207 0.0344,-0.076 0.0888,-0.1462 0.1633,-0.2093 -0.01,-0.01 -0.0219,-0.018 -0.0372,-0.026 -0.0134,-0.01 -0.0295,-0.017 -0.0486,-0.023 -0.0191,-0.01 -0.0408,-0.01 -0.0656,-0.01 -0.0669,0 -0.12365,0.022 -0.1695,0.066 -0.0439,0.044 -0.0792,0.1009 -0.10593,0.1716 -0.0267,0.069 -0.0459,0.1423 -0.0574,0.2207 -0.0115,0.078 -0.0171,0.1512 -0.0171,0.218 0,0.2197 0.0507,0.3916 0.15193,0.5158 0.10124,0.1222 0.24162,0.1829 0.42117,0.1829 h 0.67334 c 0.10123,0 0.18973,-0.023 0.26613,-0.069 0.0455,-0.029 0.0838,-0.064 0.11783,-0.1044 0.034,0.04 0.0718,0.076 0.1173,0.1044 0.0783,0.046 0.16733,0.069 0.26665,0.069 h 0.0713 0.43874 0.43821 0.10904 c 0.14325,0 0.2738,-0.023 0.39222,-0.069 0.11843,0.046 0.24949,0.069 0.39275,0.069 h 0.15451 c 0.10887,0 0.21026,-0.03 0.30386,-0.089 0.0936,-0.061 0.16904,-0.1515 0.22634,-0.2718 0.0573,-0.1222 0.0858,-0.275 0.0858,-0.4584 0,-0.275 -0.0773,-0.4822 -0.23203,-0.6216 -0.15471,-0.1414 -0.40581,-0.2124 -0.75344,-0.2124 -0.0707,0 -0.12629,0 -0.1664,0.01 -0.0401,0 -0.0742,0.01 -0.10283,0.01 -0.0573,0 -0.10241,-0.01 -0.13488,-0.025 -0.0325,-0.017 -0.0584,-0.033 -0.0775,-0.046 z m 6.27765,0.338 c -0.19673,0 -0.35442,0.06 -0.47284,0.1803 -0.11651,0.1204 -0.17467,0.2886 -0.17467,0.5044 0,0.1452 0.0248,0.2694 0.0744,0.3726 0.0497,0.1031 0.11833,0.1823 0.20619,0.2377 0.0879,0.053 0.18806,0.08 0.30075,0.08 h 0.6966 0.19172 c 0.17955,0 0.31993,-0.061 0.42117,-0.1829 0.10123,-0.1242 0.15192,-0.2961 0.15192,-0.5158 0,-0.067 -0.006,-0.1397 -0.0171,-0.218 -0.0115,-0.078 -0.0306,-0.1519 -0.0574,-0.2207 -0.0267,-0.071 -0.0632,-0.1276 -0.10904,-0.1716 -0.0439,-0.044 -0.099,-0.066 -0.16588,-0.066 -0.0248,0 -0.047,0 -0.0661,0.01 -0.0191,0.01 -0.0364,0.013 -0.0517,0.023 -0.0134,0.01 -0.0246,0.016 -0.0341,0.026 0.0764,0.063 0.13083,0.1329 0.1633,0.2093 0.0344,0.076 0.0561,0.15 0.0656,0.2207 0.01,0.071 0.0145,0.1314 0.0145,0.1829 0,0.017 -0.001,0.046 -0.003,0.086 -0.002,0.038 -0.008,0.081 -0.0196,0.1287 -0.01,0.048 -0.0262,0.093 -0.0491,0.1375 -0.021,0.044 -0.0514,0.08 -0.0915,0.109 -0.0401,0.029 -0.0908,0.043 -0.15193,0.043 h -0.19172 -0.13746 v -0.8563 c 0,-0.094 -0.0463,-0.1702 -0.13797,-0.2294 -0.0917,-0.059 -0.20986,-0.089 -0.35502,-0.089 z m 10.83862,0 c -0.19674,0 -0.35442,0.06 -0.47284,0.1803 -0.11652,0.1204 -0.17467,0.2886 -0.17467,0.5044 0,0.1452 0.0247,0.2694 0.0744,0.3726 0.0497,0.1031 0.11833,0.1823 0.20619,0.2377 0.0879,0.053 0.18807,0.08 0.30076,0.08 h 0.30127 c 0,0.05 -0.005,0.109 -0.0145,0.1778 -0.01,0.071 -0.0318,0.1424 -0.0661,0.2149 -0.0325,0.073 -0.0869,0.1413 -0.1633,0.2062 0.01,0.01 0.0212,0.016 0.0346,0.026 0.0153,0.01 0.0326,0.017 0.0517,0.023 0.0191,0.01 0.0408,0.01 0.0656,0.01 0.0668,0 0.12247,-0.021 0.1664,-0.063 0.0458,-0.042 0.0818,-0.096 0.10852,-0.1633 0.0267,-0.067 0.0459,-0.1385 0.0574,-0.2149 0.0115,-0.076 0.0176,-0.1482 0.0176,-0.215 v -0.2005 -0.8563 c 0,-0.094 -0.0463,-0.1702 -0.13798,-0.2294 -0.0917,-0.059 -0.20985,-0.089 -0.35501,-0.089 z m 2.35231,0 c -0.086,0 -0.17311,0.01 -0.26097,0.031 -0.0859,0.019 -0.1658,0.051 -0.24029,0.095 -0.0726,0.042 -0.13126,0.098 -0.17519,0.1664 -0.0439,0.067 -0.0656,0.1479 -0.0656,0.2434 0,0.1203 0.0341,0.2322 0.10284,0.3354 0.0688,0.1012 0.15964,0.1897 0.27233,0.2661 0.017,0.011 0.0362,0.02 0.0538,0.03 -0.0313,0 -0.0619,0.01 -0.094,0.01 -0.10506,0 -0.18677,0.03 -0.24598,0.089 -0.0592,0.057 -0.0889,0.15 -0.0889,0.278 0,0.059 0.005,0.123 0.0145,0.1917 0.0115,0.071 0.0282,0.1375 0.0512,0.2005 0.0229,0.063 0.0545,0.1137 0.0946,0.1519 0.042,0.04 0.0927,0.061 0.15193,0.061 0.0229,0 0.047,0 0.0718,-0.01 0.0267,-0.01 0.0503,-0.013 0.0713,-0.02 0.0229,-0.01 0.0384,-0.015 0.046,-0.023 -0.0745,-0.065 -0.12891,-0.1354 -0.16329,-0.2118 -0.0344,-0.074 -0.0566,-0.1481 -0.0661,-0.2207 -0.01,-0.071 -0.014,-0.1312 -0.014,-0.1809 0,-0.015 6.7e-4,-0.04 0.003,-0.074 5.3e-4,-0.01 0.003,-0.021 0.004,-0.031 h 0.0703 c 0.1337,0 0.26849,-0.021 0.40411,-0.063 0.002,-5e-4 0.003,0 0.005,0 0.001,4e-4 0.003,0 0.004,0 0.13561,0.042 0.26922,0.063 0.40101,0.063 h 0.49299 0.43822 0.43822 0.43821 0.43873 0.43822 0.43822 0.0718 c 0.10123,0 0.19025,-0.023 0.26665,-0.069 0.0455,-0.029 0.0833,-0.064 0.1173,-0.1044 0.034,0.04 0.0718,0.076 0.11731,0.1044 0.0783,0.046 0.16733,0.069 0.26665,0.069 h 0.10284 0.43873 0.19172 c 0.17954,0 0.31993,-0.061 0.42116,-0.1829 0.10123,-0.1242 0.15193,-0.2961 0.15193,-0.5158 0,-0.067 -0.006,-0.1397 -0.017,-0.218 -0.0115,-0.078 -0.0306,-0.1519 -0.0574,-0.2207 -0.0267,-0.071 -0.0632,-0.1276 -0.10904,-0.1716 -0.0439,-0.044 -0.099,-0.066 -0.16588,-0.066 -0.0248,0 -0.0471,0 -0.0661,0.01 -0.0191,0.01 -0.0364,0.013 -0.0517,0.023 -0.0134,0.01 -0.0246,0.016 -0.0341,0.026 0.0764,0.063 0.13082,0.1329 0.1633,0.2093 0.0344,0.076 0.0561,0.15 0.0656,0.2207 0.01,0.071 0.0145,0.1314 0.0145,0.1829 0,0.017 -0.001,0.046 -0.003,0.086 -0.002,0.038 -0.008,0.081 -0.0196,0.1287 -0.01,0.048 -0.0262,0.093 -0.0491,0.1375 -0.021,0.044 -0.0514,0.08 -0.0915,0.109 -0.0401,0.029 -0.0908,0.043 -0.15193,0.043 h -0.19172 -0.43873 -0.10284 c -0.0573,0 -0.10494,-0.017 -0.14314,-0.052 -0.0382,-0.034 -0.0672,-0.077 -0.0863,-0.1287 -0.0172,-0.052 -0.0258,-0.1041 -0.0258,-0.1576 v -0.7105 c 0,-0.048 -0.0124,-0.08 -0.0372,-0.097 -0.0248,-0.019 -0.0552,-0.029 -0.0915,-0.029 -0.0363,0 -0.0671,0.01 -0.092,0.029 -0.0248,0.017 -0.0372,0.049 -0.0372,0.097 v 0.7105 c 0,0.053 -0.009,0.1061 -0.0284,0.1576 -0.0172,0.052 -0.045,0.094 -0.0832,0.1287 -0.0363,0.034 -0.0839,0.052 -0.14314,0.052 h -0.0718 -0.43822 -0.43822 -0.43873 -0.43821 -0.43822 -0.43822 -0.49299 c -0.0308,0 -0.0607,0 -0.0909,-0.01 0.0176,-0.011 0.0367,-0.019 0.0537,-0.031 0.1127,-0.076 0.20239,-0.1649 0.26924,-0.2661 0.0688,-0.1032 0.10335,-0.2151 0.10335,-0.3354 0,-0.097 -0.0229,-0.1797 -0.0687,-0.2465 -0.0439,-0.069 -0.1026,-0.1239 -0.17518,-0.1659 -0.0726,-0.042 -0.15244,-0.073 -0.2403,-0.092 -0.0859,-0.021 -0.17191,-0.031 -0.25786,-0.031 z m 6.69571,0 c -0.19673,0 -0.35441,0.06 -0.47284,0.1803 -0.11651,0.1204 -0.17466,0.2886 -0.17466,0.5044 0,0.1452 0.0248,0.2694 0.0744,0.3726 0.0497,0.1031 0.11833,0.1823 0.20619,0.2377 0.0879,0.053 0.18806,0.08 0.30076,0.08 h 0.30075 c 0,0.05 -0.004,0.109 -0.0139,0.1778 -0.01,0.071 -0.0318,0.1424 -0.0661,0.2149 -0.0325,0.073 -0.0869,0.1413 -0.16329,0.2062 0.01,0.01 0.0213,0.016 0.0346,0.026 0.0153,0.01 0.0321,0.017 0.0512,0.023 0.0191,0.01 0.0413,0.01 0.0661,0.01 0.0669,0 0.12195,-0.021 0.16588,-0.063 0.0458,-0.042 0.0823,-0.096 0.10903,-0.1633 0.0267,-0.067 0.0459,-0.1385 0.0574,-0.2149 0.0115,-0.076 0.0171,-0.1482 0.0171,-0.215 v -0.2005 -0.8563 c 0,-0.094 -0.0458,-0.1702 -0.13746,-0.2294 -0.0917,-0.059 -0.20985,-0.089 -0.35502,-0.089 z m -19.88664,0.2005 c 0.0821,0 0.14148,0.011 0.17777,0.032 0.0382,0.021 0.0574,0.05 0.0574,0.086 v 0.8563 h -0.21498 c -0.13179,0 -0.23318,-0.042 -0.30385,-0.1261 -0.0707,-0.084 -0.10594,-0.2053 -0.10594,-0.3638 0,-0.1604 0.0334,-0.2805 0.10025,-0.3607 0.0668,-0.082 0.16333,-0.1235 0.28939,-0.1235 z m 9.0563,0 c 0.15471,0 0.27713,0.044 0.3669,0.1318 0.0917,0.088 0.13746,0.2331 0.13746,0.4356 0,0.1452 -0.0229,0.2491 -0.0687,0.3121 -0.0458,0.063 -0.10773,0.095 -0.18604,0.095 h -0.97978 v -0.2579 c 0.0229,-0.075 0.0502,-0.1525 0.0827,-0.2346 0.0344,-0.084 0.0783,-0.1625 0.13177,-0.2351 0.0535,-0.073 0.12267,-0.1319 0.20671,-0.1778 0.084,-0.046 0.18678,-0.069 0.30903,-0.069 z m 1.78232,0 c 0.0821,0 0.14147,0.011 0.17776,0.032 0.0382,0.021 0.0574,0.05 0.0574,0.086 v 0.8563 h -0.21497 c -0.13179,0 -0.23319,-0.042 -0.30386,-0.1261 -0.0707,-0.084 -0.10593,-0.2053 -0.10593,-0.3638 0,-0.1604 0.0334,-0.2805 0.10025,-0.3607 0.0669,-0.082 0.16332,-0.1235 0.28939,-0.1235 z m 2.35231,0 c 0.15471,0 0.27407,0.03 0.35811,0.089 0.0841,0.057 0.12609,0.1395 0.12609,0.2465 0,0.082 -0.0247,0.1613 -0.0744,0.2377 -0.0477,0.076 -0.11388,0.1451 -0.19792,0.2062 -0.0634,0.045 -0.13545,0.081 -0.21187,0.1121 -0.0765,-0.032 -0.14895,-0.067 -0.21239,-0.1121 -0.0841,-0.061 -0.15085,-0.1298 -0.20051,-0.2062 -0.0478,-0.076 -0.0713,-0.1556 -0.0713,-0.2377 0,-0.107 0.0421,-0.1892 0.12609,-0.2465 0.084,-0.059 0.2034,-0.089 0.35812,-0.089 z m 6.69571,0 c 0.0821,0 0.14096,0.011 0.17725,0.032 0.0382,0.021 0.0574,0.05 0.0574,0.086 v 0.8563 h -0.21445 c -0.1318,0 -0.23319,-0.042 -0.30386,-0.1261 -0.0707,-0.084 -0.10594,-0.2053 -0.10594,-0.3638 0,-0.1604 0.0334,-0.2805 0.10025,-0.3607 0.0669,-0.082 0.16333,-0.1235 0.28939,-0.1235 z m 2.15439,0.049 c -0.0879,0 -0.16704,0.013 -0.23771,0.038 -0.0707,0.023 -0.13001,0.056 -0.17777,0.1002 -0.0478,0.044 -0.0849,0.095 -0.11162,0.1546 -0.0248,0.059 -0.0372,0.1229 -0.0372,0.1917 0,0.076 0.0124,0.1481 0.0372,0.2149 0.0267,0.065 0.0571,0.1206 0.0915,0.1664 0.027,0.033 0.0486,0.049 0.0703,0.066 -0.0173,-0.01 -0.0357,-0.016 -0.0558,-0.018 -0.0439,-0.01 -0.0848,0 -0.12299,0.023 -0.0363,0.021 -0.0604,0.052 -0.0718,0.092 -0.0115,0.038 9.2e-4,0.083 0.0372,0.1344 0.008,-0.01 0.0268,-0.016 0.0574,-0.025 0.0325,-0.01 0.0745,-0.016 0.12609,-0.023 0.0516,-0.01 0.10905,-0.019 0.17208,-0.028 0.063,-0.01 0.12864,-0.018 0.1974,-0.026 0.0707,-0.01 0.14121,-0.018 0.21188,-0.026 0.0726,-0.01 0.14176,-0.014 0.2067,-0.02 0.0153,0 0.0277,-0.01 0.0372,-0.028 0.0115,-0.019 0.0159,-0.04 0.0139,-0.063 0,-0.025 -0.009,-0.047 -0.0258,-0.066 -0.0153,-0.019 -0.0426,-0.028 -0.0827,-0.028 -0.0153,0 -0.04,0.01 -0.0744,0.014 -0.0344,0 -0.0739,0.01 -0.11782,0.01 -0.0669,0 -0.13552,-0.01 -0.20619,-0.029 -0.0707,-0.019 -0.13002,-0.056 -0.17777,-0.1117 -0.0458,-0.057 -0.0687,-0.1395 -0.0687,-0.2465 0,-0.08 0.0124,-0.1439 0.0372,-0.1917 0.0248,-0.048 0.0538,-0.083 0.0863,-0.1064 0.0268,-0.018 0.0506,-0.023 0.0739,-0.026 0.0242,0 0.0479,0.01 0.0749,0.018 0.0382,0.015 0.0704,0.04 0.0971,0.074 0.0286,0.033 0.0422,0.074 0.0403,0.1261 0.0172,0.015 0.0431,0.022 0.0775,0.02 0.0363,0 0.0685,-0.015 0.0971,-0.04 0.0286,-0.027 0.0429,-0.069 0.0429,-0.126 0,-0.023 -0.006,-0.051 -0.0196,-0.083 -0.0115,-0.034 -0.0405,-0.064 -0.0863,-0.088 -0.0439,-0.025 -0.11446,-0.038 -0.21188,-0.038 z m -28.01483,0.1121 c 0.0344,0 0.0641,0.029 0.0889,0.086 0.0267,0.055 0.0403,0.1339 0.0403,0.2351 0,0.1681 -0.0421,0.2919 -0.12609,0.3721 -8.8e-4,8e-4 -0.002,0 -0.003,0 -7.8e-4,-8e-4 -0.002,0 -0.003,0 -0.084,-0.08 -0.12609,-0.204 -0.12609,-0.3721 0,-0.1012 0.0124,-0.1797 0.0372,-0.2351 0.0267,-0.057 0.0571,-0.086 0.0915,-0.086 z m -2.58123,1.2433 c -0.0478,0 -0.0879,0.016 -0.12041,0.049 -0.0325,0.032 -0.0486,0.072 -0.0486,0.1173 0,0.044 0.0161,0.082 0.0486,0.1147 0.0325,0.033 0.0727,0.049 0.12041,0.049 0.0439,0 0.0822,-0.016 0.11472,-0.049 0.0325,-0.032 0.0486,-0.071 0.0486,-0.1147 0,-0.046 -0.0161,-0.085 -0.0486,-0.1173 -0.0325,-0.033 -0.0708,-0.049 -0.11472,-0.049 z m 15.66881,0 c -0.0439,0 -0.0817,0.016 -0.11421,0.049 -0.0325,0.032 -0.0491,0.072 -0.0491,0.1173 0,0.044 0.0166,0.082 0.0491,0.1147 0.0325,0.033 0.0703,0.049 0.11421,0.049 0.0458,0 0.0842,-0.016 0.11472,-0.049 0.0325,-0.032 0.0486,-0.071 0.0486,-0.1147 0,-0.046 -0.0161,-0.085 -0.0486,-0.1173 -0.0306,-0.033 -0.0689,-0.049 -0.11472,-0.049 z m 0.41858,0 c -0.0439,0 -0.0823,0.016 -0.11472,0.049 -0.0325,0.032 -0.0486,0.072 -0.0486,0.1173 0,0.044 0.0161,0.082 0.0486,0.1147 0.0325,0.033 0.0708,0.049 0.11472,0.049 0.0458,0 0.0842,-0.016 0.11472,-0.049 0.0325,-0.032 0.0486,-0.071 0.0486,-0.1147 0,-0.046 -0.0161,-0.085 -0.0486,-0.1173 -0.0306,-0.033 -0.0689,-0.049 -0.11472,-0.049 z m 9.43456,0 c -0.0439,0 -0.0823,0.016 -0.11472,0.049 -0.0325,0.032 -0.0486,0.072 -0.0486,0.1173 0,0.044 0.0161,0.082 0.0486,0.1147 0.0325,0.033 0.0708,0.049 0.11472,0.049 0.0458,0 0.0842,-0.016 0.11473,-0.049 0.0325,-0.032 0.0486,-0.071 0.0486,-0.1147 0,-0.046 -0.0161,-0.085 -0.0486,-0.1173 -0.0306,-0.033 -0.0689,-0.049 -0.11473,-0.049 z m 0.41858,0 c -0.0439,0 -0.0823,0.016 -0.11472,0.049 -0.0325,0.032 -0.0486,0.072 -0.0486,0.1173 0,0.044 0.0161,0.082 0.0486,0.1147 0.0325,0.033 0.0708,0.049 0.11472,0.049 0.0458,0 0.0837,-0.016 0.11421,-0.049 0.0325,-0.032 0.0491,-0.071 0.0491,-0.1147 0,-0.046 -0.0166,-0.085 -0.0491,-0.1173 -0.0306,-0.033 -0.0684,-0.049 -0.11421,-0.049 z m 1.13998,0 c -0.0478,0 -0.0879,0.016 -0.1204,0.049 -0.0325,0.032 -0.0486,0.072 -0.0486,0.1173 0,0.044 0.0161,0.082 0.0486,0.1147 0.0325,0.033 0.0727,0.049 0.1204,0.049 0.0439,0 0.0823,-0.016 0.11473,-0.049 0.0325,-0.032 0.0486,-0.071 0.0486,-0.1147 0,-0.046 -0.0161,-0.085 -0.0486,-0.1173 -0.0325,-0.033 -0.0708,-0.049 -0.11473,-0.049 z" />
  </g>
</svg>
