<?xml version="1.0" encoding="UTF-8" standalone="no"?>
<!-- Created with Inkscape (http://www.inkscape.org/) -->

<svg
   width="58.32766mm"
   height="36.602882mm"
   viewBox="0 0 58.327658 36.602883"
   version="1.1"
   id="svg1"
   inkscape:export-filename="partner_1.svg"
   inkscape:export-xdpi="96"
   inkscape:export-ydpi="96"
   xmlns:inkscape="http://www.inkscape.org/namespaces/inkscape"
   xmlns:sodipodi="http://sodipodi.sourceforge.net/DTD/sodipodi-0.dtd"
   xmlns="http://www.w3.org/2000/svg"
   xmlns:svg="http://www.w3.org/2000/svg">
  <sodipodi:namedview
     id="namedview1"
     pagecolor="#505050"
     bordercolor="#eeeeee"
     borderopacity="1"
     inkscape:showpageshadow="0"
     inkscape:pageopacity="0"
     inkscape:pagecheckerboard="0"
     inkscape:deskcolor="#505050"
     inkscape:document-units="mm">
    <inkscape:page
       x="0"
       y="0"
       width="58.327656"
       height="36.602882"
       id="page2"
       margin="0"
       bleed="0" />
  </sodipodi:namedview>
  <defs
     id="defs1" />
  <g
     inkscape:label="طبقة 1"
     inkscape:groupmode="layer"
     id="layer1"
     transform="translate(266.96764,-1495.6112)">
    <g
       id="g89"
       transform="matrix(2.0714014,0,0,2.0714014,2509.4764,-333.7414)">
      <g
         id="g73"
         transform="matrix(0.99999508,0,0,0.99999508,-1895.3714,400.9688)">
        <text
           xml:space="preserve"
           style="font-style:normal;font-variant:normal;font-weight:normal;font-stretch:normal;font-size:7.1627px;line-height:7.70765px;font-family:Montserrat-Arabic;-inkscape-font-specification:Montserrat-Arabic;text-align:center;letter-spacing:-0.0963448px;writing-mode:lr-tb;direction:rtl;text-anchor:middle;vector-effect:non-scaling-stroke;fill:#ffffff;fill-opacity:1;stroke-width:0.240864;-inkscape-stroke:hairline"
           x="569.19104"
           y="499.63751"
           id="text72"><tspan
             sodipodi:role="line"
             id="tspan72"
             style="letter-spacing:-0.0963448px;fill:#ffffff;fill-opacity:1;stroke-width:0.240864"
             x="569.14288"
             y="499.63751">Cus  om</tspan></text>
        <path
           id="path72"
           style="vector-effect:non-scaling-stroke;fill:#ffffff;fill-opacity:1;stroke-width:0.252216;-inkscape-stroke:hairline"
           d="m 568.28964,494.53767 c -0.0268,0 -0.048,0.0232 -0.048,0.052 v 0.94425 h 1.0109 v -0.94425 c 0,-0.0288 -0.0212,-0.052 -0.048,-0.052 z m 0.96302,0.99623 v 1.15339 h 1.22494 c 0.0288,0 0.0518,-0.0232 0.0518,-0.052 v -1.04944 c 0,-0.0288 -0.0233,-0.052 -0.0518,-0.052 z m 0,1.15339 h -1.01079 v 1.31363 0.32595 c 0,0.97381 0.72161,1.52473 1.61141,1.52471 0.79781,-0.002 1.47346,-0.58893 1.58879,-1.37832 0.0132,-0.0769 0.0207,-0.15463 0.0223,-0.23263 v -0.45498 c 0,-0.015 -0.0233,-0.0267 -0.0519,-0.0267 h -1.04892 c -0.0288,0 -0.0518,0.0119 -0.0518,0.0267 v 0.0401 0.41485 0.001 0.005 0.0118 c 0,0.0164 -0.006,0.0329 -0.006,0.0489 0,0.0113 -0.006,0.0224 -0.006,0.0335 0,0.005 -0.006,0.0103 -0.006,0.0154 -0.0435,0.20405 -0.20312,0.36347 -0.4071,0.40712 -0.006,10e-4 -0.0106,10e-4 -0.0152,0.002 -0.0117,0.001 -0.0217,0.004 -0.0334,0.005 -0.0157,10e-4 -0.0324,0.002 -0.049,0.004 -0.006,0 -0.009,0.001 -0.0117,0.001 h -0.006 -0.006 c -0.0167,-1.3e-4 -0.0334,-0.002 -0.0491,-0.004 -0.2686,-0.0289 -0.47248,-0.25531 -0.47302,-0.52548 0.006,-0.30817 0,-1.25126 0,-1.56108 z"
           sodipodi:nodetypes="ssccsssccssssccccscccssssccscccsccscccsccscc" />
      </g>
      <g
         id="g88"
         transform="matrix(0.99994651,0,0,0.99994651,-26.99054,-4.6644248)">
        <path
           d="m -1299.141,895.56115 -0.1152,0.11133 v 1.78906 l 0.9941,0.93165 h 0.1016 2.2129 0.2265 v -1.4668 h -0.2265 -1.8282 z"
           style="fill:#3d73ff;fill-opacity:1;stroke-width:1.37764;stroke-dashoffset:8"
           id="path73" />
        <path
           d="m -1299.6,895.56115 -1.3652,1.36524 h -1.8281 -0.2285 v 1.4668 h 0.2285 2.2129 0.1015 l 0.9942,-0.93165 v -1.78906 z"
           style="fill:#3d73ff;fill-opacity:1;stroke-width:1.37764;stroke-dashoffset:8"
           id="path78" />
        <path
           d="m -1299.141,893.8717 c -0.027,0 -0.054,0.003 -0.1152,0.004 v 1.30468 l 1.4219,1.35938 h 0.164 1.3574 0.2325 c -0.042,-0.47452 -0.2065,-0.91454 -0.4629,-1.29688 l -2.3575,-1.36132 c -0.079,-0.006 -0.1596,-0.01 -0.2402,-0.01 z"
           style="fill:#ffffff;stroke-width:1.37764;stroke-dashoffset:8"
           id="path79" />
        <path
           d="m -1299.6,893.8717 c -0.081,0 -0.1589,0.004 -0.2383,0.01 l -2.3574,1.36132 c -0.2564,0.38234 -0.4225,0.82236 -0.4648,1.29688 h 0.2324 1.3574 0.1641 l 1.4219,-1.35938 v -1.30468 h -0.035 c -0.027,-6.6e-4 -0.053,-0.004 -0.08,-0.004 z"
           style="fill:#ffffff;stroke-width:1.37764;stroke-dashoffset:8"
           id="path80" />
        <path
           d="m -1297.8383,892.72717 -1.1132,0.68164 c 0.013,0.0235 0.024,0.049 0.037,0.0723 0.04,0.0698 0.082,0.13745 0.1269,0.20312 l 2.3575,1.35938 c 0.4593,0.0308 0.9252,-0.0456 1.3574,-0.2461 l -0.1172,-0.20117 -0.6777,-1.17578 -0.082,-0.14258 z"
           style="fill:#ffffff;stroke-width:1.37764;stroke-dashoffset:8"
           id="path81" />
        <path
           d="m -1300.9027,892.72717 -1.8867,0.55078 -0.084,0.14258 -0.6777,1.17578 -0.1172,0.20117 c 0.4321,0.20053 0.9,0.27695 1.3593,0.2461 l 2.3555,-1.35938 c 0.045,-0.0657 0.087,-0.13334 0.127,-0.20312 0.013,-0.0233 0.024,-0.0488 0.037,-0.0723 l 0.019,-0.0293 z"
           style="fill:#ffffff;stroke-width:1.37764;stroke-dashoffset:8"
           id="path82" />
        <path
           d="m -1295.8636,891.58654 -1.5489,0.89454 -0.037,0.15429 1.8633,0.5 0.9141,1.58399 0.1132,0.19726 1.2715,-0.73242 -0.1152,-0.19922 -1.1074,-1.91406 -0.049,-0.0898 z"
           style="fill:#3d73ff;fill-opacity:1;stroke-width:1.37764;stroke-dashoffset:8"
           id="path83" />
        <path
           d="m -1302.8773,891.58654 -1.3027,0.39454 -0.053,0.0898 -1.1055,1.91406 -0.1132,0.19922 1.2695,0.73242 0.1133,-0.19726 0.914,-1.58399 1.8653,-0.5 -0.039,-0.15429 z"
           style="fill:#3d73ff;fill-opacity:1;stroke-width:1.37764;stroke-dashoffset:8"
           id="path84" />
        <path
           d="m -1298.3636,889.09826 c -0.3898,0.27392 -0.6897,0.6376 -0.8926,1.05078 v 2.72071 c 0.034,0.0717 0.073,0.14311 0.1133,0.21289 0.013,0.0234 0.027,0.0466 0.059,0.0996 l 1.1308,-0.65235 0.4668,-1.91406 -0.082,-0.14062 -0.6797,-1.17774 z"
           style="fill:#ffffff;stroke-width:1.37764;stroke-dashoffset:8"
           id="path85" />
        <path
           d="m -1300.3773,889.09826 -0.1152,0.19922 -0.6797,1.17774 -0.082,0.14062 0.4668,1.91406 1.1485,0.6211 c 0.014,-0.0229 0.029,-0.045 0.043,-0.0684 0.04,-0.0698 0.077,-0.1412 0.1114,-0.21289 V 890.149 c -0.203,-0.41318 -0.5028,-0.77686 -0.8926,-1.05078 z"
           style="fill:#ffffff;stroke-width:1.37764;stroke-dashoffset:8"
           id="path86" />
        <path
           d="m -1296.9398,887.85998 -1.2695,0.73242 0.1132,0.19727 0.9141,1.58398 -0.498,1.86329 0.1542,0.0449 1.5469,-0.89258 0.3106,-1.32813 -0.051,-0.0879 -1.1055,-1.91601 z"
           style="fill:#3d73ff;fill-opacity:1;stroke-width:1.37764;stroke-dashoffset:8"
           id="path87" />
        <path
           d="m -1301.8011,887.85998 -0.1133,0.19727 -1.1074,1.91601 -0.051,0.0879 0.3105,1.32813 1.5488,0.89258 0.1524,-0.0449 -0.4981,-1.86329 0.9141,-1.58398 0.1133,-0.19727 z"
           style="fill:#3d73ff;fill-opacity:1;stroke-width:1.37764;stroke-dashoffset:8"
           id="path88" />
        <text
           xml:space="preserve"
           style="font-size:0.700253px;line-height:1.18656px;font-family:'Digi Rastin Bold';-inkscape-font-specification:'Digi Rastin Bold, ';text-align:start;letter-spacing:0px;writing-mode:lr-tb;direction:rtl;text-anchor:start;fill:#ffffff;fill-opacity:1;stroke:none;stroke-width:0.11376;stroke-dasharray:none;stroke-dashoffset:8"
           x="-1304.4573"
           y="888.34943"
           id="text88"><tspan
             sodipodi:role="line"
             id="tspan88"
             style="fill:#ffffff;fill-opacity:1;stroke-width:0.11376"
             x="-1304.4573"
             y="888.34943">TM</tspan></text>
      </g>
    </g>
  </g>
</svg>
