<?xml version="1.0" encoding="UTF-8" standalone="no"?>
<!-- Created with Inkscape (http://www.inkscape.org/) -->

<svg
   width="58.327183mm"
   height="36.602882mm"
   viewBox="0 0 58.327183 36.602881"
   version="1.1"
   id="svg1"
   xml:space="preserve"
   xmlns="http://www.w3.org/2000/svg"
   xmlns:svg="http://www.w3.org/2000/svg"><defs
     id="defs1" /><g
     id="layer1"
     transform="translate(-143.98158,-110.13292)"><g
       id="g89"
       transform="matrix(2.0714014,0,0,2.0714014,2920.4254,-1719.2197)"><g
         id="g73"
         transform="matrix(0.99999508,0,0,0.99999508,-1895.3714,400.9688)"><path
           id="text72"
           style="font-style:normal;font-variant:normal;font-weight:normal;font-stretch:normal;font-size:7.1627px;line-height:7.70765px;font-family:Montserrat-Arabic;-inkscape-font-specification:Montserrat-Arabic;text-align:center;letter-spacing:-0.0963448px;writing-mode:lr-tb;direction:rtl;text-anchor:middle;vector-effect:non-scaling-stroke;fill:#ffffff;fill-opacity:1;stroke-width:0.240864;-inkscape-stroke:hairline"
           d="m 557.69023,494.53759 c -0.50616,0 -0.96446,0.11236 -1.37512,0.33679 -0.40588,0.22443 -0.726,0.53225 -0.95998,0.92381 -0.23399,0.39156 -0.35077,0.83093 -0.35077,1.31799 0,0.49184 0.11457,0.93587 0.34378,1.33221 0.22921,0.39633 0.54441,0.70932 0.94552,0.93853 0.40111,0.22921 0.84981,0.34378 1.34642,0.34378 0.36769,0 0.73772,-0.0836 1.11018,-0.25073 0.37723,-0.1719 0.70202,-0.40105 0.9742,-0.68755 l -0.76639,-0.82378 c -0.17668,0.18146 -0.37731,0.32455 -0.60174,0.4296 -0.22443,0.10505 -0.43931,0.15767 -0.64465,0.15767 -0.25308,0 -0.48468,-0.062 -0.69479,-0.18611 -0.20533,-0.12893 -0.3676,-0.30325 -0.48698,-0.5229 -0.11938,-0.22443 -0.17912,-0.47276 -0.17912,-0.74494 0,-0.27218 0.0597,-0.51805 0.17912,-0.7377 0.11938,-0.22444 0.28165,-0.39875 0.48698,-0.52291 0.21011,-0.12893 0.44171,-0.19334 0.69479,-0.19334 0.21966,0 0.44168,0.062 0.66611,0.18611 0.22443,0.11938 0.41793,0.28165 0.58028,0.48698 l 0.75916,-0.91683 c -0.25308,-0.26741 -0.5609,-0.47738 -0.92381,-0.63018 -0.36291,-0.15758 -0.73073,-0.2365 -1.10319,-0.2365 z m 8.56005,1.16755 c -0.46796,0 -0.84979,0.11236 -1.14585,0.33679 -0.29605,0.21966 -0.44406,0.52527 -0.44406,0.91683 0,0.25308 0.0644,0.45838 0.19334,0.61596 0.1337,0.15758 0.28884,0.27682 0.46552,0.358 0.17668,0.0764 0.40116,0.15532 0.67334,0.2365 0.22921,0.0621 0.3964,0.11936 0.50145,0.17189 0.10983,0.0525 0.16466,0.12653 0.16466,0.22204 0,0.0764 -0.0381,0.13614 -0.11451,0.17912 -0.0716,0.0382 -0.16973,0.0571 -0.29389,0.0571 -0.21488,0 -0.44402,-0.0406 -0.68756,-0.12174 -0.23875,-0.086 -0.4679,-0.2052 -0.68756,-0.358 l -0.40115,0.82352 c 0.23398,0.18145 0.50148,0.32013 0.80231,0.41563 0.30084,0.0907 0.61604,0.13596 0.94552,0.13596 0.48707,0 0.88094,-0.1099 1.18177,-0.32956 0.30561,-0.22443 0.45829,-0.53225 0.45829,-0.92381 0,-0.25786 -0.0669,-0.46561 -0.20058,-0.62319 -0.1337,-0.16236 -0.29351,-0.28185 -0.47974,-0.35825 -0.18146,-0.0812 -0.4106,-0.16231 -0.68756,-0.24349 -0.22921,-0.0621 -0.39639,-0.11936 -0.50145,-0.17189 -0.10505,-0.0525 -0.15767,-0.12161 -0.15767,-0.20757 0,-0.0812 0.0334,-0.14092 0.10029,-0.17912 0.0668,-0.043 0.15512,-0.0646 0.26495,-0.0646 0.31993,0 0.73077,0.13129 1.23216,0.39392 l 0.4296,-0.83076 c -0.24353,-0.14803 -0.50365,-0.26014 -0.78061,-0.33654 -0.27218,-0.0764 -0.54928,-0.11476 -0.83101,-0.11476 z m 12.88,0.007 c -0.28174,0 -0.53006,0.0597 -0.74494,0.17913 -0.21011,0.1146 -0.38197,0.284 -0.51567,0.50843 v -0.63741 h -1.26784 v 3.87487 h 1.26784 v -1.91224 c 0,-0.25785 0.0669,-0.46561 0.20058,-0.62319 0.1337,-0.16236 0.31269,-0.24595 0.53712,-0.25072 0.19578,0 0.35117,0.0644 0.46578,0.19334 0.1146,0.12415 0.17189,0.29601 0.17189,0.51567 v 2.07714 h 1.27482 v -1.91224 c 0,-0.25785 0.0644,-0.46561 0.19335,-0.62319 0.1337,-0.16236 0.31294,-0.24595 0.53737,-0.25072 0.19578,0 0.35092,0.0644 0.46553,0.19334 0.1146,0.12415 0.17188,0.29601 0.17188,0.51567 v 2.07714 h 1.27483 v -2.44238 c 0,-0.45363 -0.12637,-0.81407 -0.37945,-1.08148 -0.25308,-0.26741 -0.58967,-0.40116 -1.00989,-0.40116 -0.31515,0 -0.58979,0.074 -0.82377,0.22204 -0.2292,0.14325 -0.40598,0.35814 -0.53014,0.64465 -0.0955,-0.27219 -0.25531,-0.48461 -0.47974,-0.63742 -0.22443,-0.1528 -0.49439,-0.22927 -0.80955,-0.22927 z m -5.20409,0.007 c -0.42021,0 -0.79024,0.0836 -1.11017,0.25072 -0.31994,0.16236 -0.56826,0.39371 -0.74494,0.69455 -0.17191,0.29605 -0.25771,0.64002 -0.25771,1.03158 0,0.39634 0.0858,0.74498 0.25771,1.04581 0.17668,0.29606 0.425,0.52766 0.74494,0.69479 0.31993,0.16236 0.68996,0.24349 1.11017,0.24349 0.42021,0 0.79049,-0.0811 1.11042,-0.24349 0.31993,-0.16713 0.56826,-0.39873 0.74494,-0.69479 0.17668,-0.30083 0.26494,-0.64947 0.26494,-1.04581 0,-0.39156 -0.0883,-0.73553 -0.26494,-1.03158 -0.17668,-0.30084 -0.42501,-0.53219 -0.74494,-0.69455 -0.31993,-0.16713 -0.69021,-0.25072 -1.11042,-0.25072 z m -13.85395,0.0429 v 2.44961 c 0,0.44886 0.12416,0.8093 0.37246,1.08148 0.25309,0.26741 0.58968,0.40116 1.00989,0.40116 0.56346,-0.01 0.97652,-0.23869 1.23915,-0.68756 v 0.63018 h 1.27508 v -3.87487 h -1.27508 v 1.91249 c 0,0.25786 -0.0644,0.46782 -0.19335,0.63018 -0.12892,0.15758 -0.3057,0.23871 -0.53013,0.24349 -0.19101,0 -0.34369,-0.062 -0.45829,-0.18611 -0.10983,-0.12416 -0.16491,-0.29602 -0.16491,-0.51567 v -2.08438 z m 13.85395,0.98843 c 0.24831,0 0.44893,0.0883 0.60174,0.26494 0.15758,0.17668 0.2365,0.40829 0.2365,0.69479 0,0.29129 -0.0765,0.52535 -0.22927,0.70203 -0.1528,0.17668 -0.35589,0.26495 -0.60897,0.26495 -0.24831,0 -0.44869,-0.0883 -0.60149,-0.26495 -0.15281,-0.17668 -0.22927,-0.41074 -0.22927,-0.70203 0,-0.2865 0.0765,-0.51811 0.22927,-0.69479 0.1528,-0.17668 0.35318,-0.26494 0.60149,-0.26494 z" /><path
           id="path72"
           style="vector-effect:non-scaling-stroke;fill:#ffffff;fill-opacity:1;stroke-width:0.252216;-inkscape-stroke:hairline"
           d="m 568.28964,494.53767 c -0.0268,0 -0.048,0.0232 -0.048,0.052 v 0.94425 h 1.0109 v -0.94425 c 0,-0.0288 -0.0212,-0.052 -0.048,-0.052 z m 0.96302,0.99623 v 1.15339 h 1.22494 c 0.0288,0 0.0518,-0.0232 0.0518,-0.052 v -1.04944 c 0,-0.0288 -0.0233,-0.052 -0.0518,-0.052 z m 0,1.15339 h -1.01079 v 1.31363 0.32595 c 0,0.97381 0.72161,1.52473 1.61141,1.52471 0.79781,-0.002 1.47346,-0.58893 1.58879,-1.37832 0.0132,-0.0769 0.0207,-0.15463 0.0223,-0.23263 v -0.45498 c 0,-0.015 -0.0233,-0.0267 -0.0519,-0.0267 h -1.04892 c -0.0288,0 -0.0518,0.0119 -0.0518,0.0267 v 0.0401 0.41485 0.001 0.005 0.0118 c 0,0.0164 -0.006,0.0329 -0.006,0.0489 0,0.0113 -0.006,0.0224 -0.006,0.0335 0,0.005 -0.006,0.0103 -0.006,0.0154 -0.0435,0.20405 -0.20312,0.36347 -0.4071,0.40712 -0.006,10e-4 -0.0106,10e-4 -0.0152,0.002 -0.0117,0.001 -0.0217,0.004 -0.0334,0.005 -0.0157,10e-4 -0.0324,0.002 -0.049,0.004 -0.006,0 -0.009,0.001 -0.0117,0.001 h -0.006 -0.006 c -0.0167,-1.3e-4 -0.0334,-0.002 -0.0491,-0.004 -0.2686,-0.0289 -0.47248,-0.25531 -0.47302,-0.52548 0.006,-0.30817 0,-1.25126 0,-1.56108 z" /></g><g
         id="g88"
         transform="matrix(0.99994651,0,0,0.99994651,-26.99054,-4.6644248)"><path
           d="m -1299.141,895.56115 -0.1152,0.11133 v 1.78906 l 0.9941,0.93165 h 0.1016 2.2129 0.2265 v -1.4668 h -0.2265 -1.8282 z"
           style="fill:#3d73ff;fill-opacity:1;stroke-width:1.37764;stroke-dashoffset:8"
           id="path73" /><path
           d="m -1299.6,895.56115 -1.3652,1.36524 h -1.8281 -0.2285 v 1.4668 h 0.2285 2.2129 0.1015 l 0.9942,-0.93165 v -1.78906 z"
           style="fill:#3d73ff;fill-opacity:1;stroke-width:1.37764;stroke-dashoffset:8"
           id="path78" /><path
           d="m -1299.141,893.8717 c -0.027,0 -0.054,0.003 -0.1152,0.004 v 1.30468 l 1.4219,1.35938 h 0.164 1.3574 0.2325 c -0.042,-0.47452 -0.2065,-0.91454 -0.4629,-1.29688 l -2.3575,-1.36132 c -0.079,-0.006 -0.1596,-0.01 -0.2402,-0.01 z"
           style="fill:#ffffff;stroke-width:1.37764;stroke-dashoffset:8"
           id="path79" /><path
           d="m -1299.6,893.8717 c -0.081,0 -0.1589,0.004 -0.2383,0.01 l -2.3574,1.36132 c -0.2564,0.38234 -0.4225,0.82236 -0.4648,1.29688 h 0.2324 1.3574 0.1641 l 1.4219,-1.35938 v -1.30468 h -0.035 c -0.027,-6.6e-4 -0.053,-0.004 -0.08,-0.004 z"
           style="fill:#ffffff;stroke-width:1.37764;stroke-dashoffset:8"
           id="path80" /><path
           d="m -1297.8383,892.72717 -1.1132,0.68164 c 0.013,0.0235 0.024,0.049 0.037,0.0723 0.04,0.0698 0.082,0.13745 0.1269,0.20312 l 2.3575,1.35938 c 0.4593,0.0308 0.9252,-0.0456 1.3574,-0.2461 l -0.1172,-0.20117 -0.6777,-1.17578 -0.082,-0.14258 z"
           style="fill:#ffffff;stroke-width:1.37764;stroke-dashoffset:8"
           id="path81" /><path
           d="m -1300.9027,892.72717 -1.8867,0.55078 -0.084,0.14258 -0.6777,1.17578 -0.1172,0.20117 c 0.4321,0.20053 0.9,0.27695 1.3593,0.2461 l 2.3555,-1.35938 c 0.045,-0.0657 0.087,-0.13334 0.127,-0.20312 0.013,-0.0233 0.024,-0.0488 0.037,-0.0723 l 0.019,-0.0293 z"
           style="fill:#ffffff;stroke-width:1.37764;stroke-dashoffset:8"
           id="path82" /><path
           d="m -1295.8636,891.58654 -1.5489,0.89454 -0.037,0.15429 1.8633,0.5 0.9141,1.58399 0.1132,0.19726 1.2715,-0.73242 -0.1152,-0.19922 -1.1074,-1.91406 -0.049,-0.0898 z"
           style="fill:#3d73ff;fill-opacity:1;stroke-width:1.37764;stroke-dashoffset:8"
           id="path83-4" /><path
           d="m -1302.8773,891.58654 -1.3027,0.39454 -0.053,0.0898 -1.1055,1.91406 -0.1132,0.19922 1.2695,0.73242 0.1133,-0.19726 0.914,-1.58399 1.8653,-0.5 -0.039,-0.15429 z"
           style="fill:#3d73ff;fill-opacity:1;stroke-width:1.37764;stroke-dashoffset:8"
           id="path84-4" /><path
           d="m -1298.3636,889.09826 c -0.3898,0.27392 -0.6897,0.6376 -0.8926,1.05078 v 2.72071 c 0.034,0.0717 0.073,0.14311 0.1133,0.21289 0.013,0.0234 0.027,0.0466 0.059,0.0996 l 1.1308,-0.65235 0.4668,-1.91406 -0.082,-0.14062 -0.6797,-1.17774 z"
           style="fill:#ffffff;stroke-width:1.37764;stroke-dashoffset:8"
           id="path85" /><path
           d="m -1300.3773,889.09826 -0.1152,0.19922 -0.6797,1.17774 -0.082,0.14062 0.4668,1.91406 1.1485,0.6211 c 0.014,-0.0229 0.029,-0.045 0.043,-0.0684 0.04,-0.0698 0.077,-0.1412 0.1114,-0.21289 V 890.149 c -0.203,-0.41318 -0.5028,-0.77686 -0.8926,-1.05078 z"
           style="fill:#ffffff;stroke-width:1.37764;stroke-dashoffset:8"
           id="path86" /><path
           d="m -1296.9398,887.85998 -1.2695,0.73242 0.1132,0.19727 0.9141,1.58398 -0.498,1.86329 0.1542,0.0449 1.5469,-0.89258 0.3106,-1.32813 -0.051,-0.0879 -1.1055,-1.91601 z"
           style="fill:#3d73ff;fill-opacity:1;stroke-width:1.37764;stroke-dashoffset:8"
           id="path87" /><path
           d="m -1301.8011,887.85998 -0.1133,0.19727 -1.1074,1.91601 -0.051,0.0879 0.3105,1.32813 1.5488,0.89258 0.1524,-0.0449 -0.4981,-1.86329 0.9141,-1.58398 0.1133,-0.19727 z"
           style="fill:#3d73ff;fill-opacity:1;stroke-width:1.37764;stroke-dashoffset:8"
           id="path88" /><text
           xml:space="preserve"
           style="font-size:0.700253px;line-height:1.18656px;font-family:'Digi Rastin Bold';-inkscape-font-specification:'Digi Rastin Bold, ';text-align:start;letter-spacing:0px;writing-mode:lr-tb;direction:rtl;text-anchor:start;fill:#ffffff;fill-opacity:1;stroke:none;stroke-width:0.11376;stroke-dasharray:none;stroke-dashoffset:8"
           x="-1304.4573"
           y="888.34943"
           id="text88"><tspan
             id="tspan88"
             style="fill:#ffffff;fill-opacity:1;stroke-width:0.11376"
             x="-1304.4573"
             y="888.34943">TM</tspan></text></g></g></g></svg>
