<?xml version="1.0" encoding="UTF-8" standalone="no"?>
<!-- Created with Inkscape (http://www.inkscape.org/) -->

<svg
   width="40.349815mm"
   height="5.8514953mm"
   viewBox="0 0 40.349815 5.8514952"
   version="1.1"
   id="svg1"
   inkscape:export-filename="rating.svg"
   inkscape:export-xdpi="96"
   inkscape:export-ydpi="96"
   xmlns:inkscape="http://www.inkscape.org/namespaces/inkscape"
   xmlns:sodipodi="http://sodipodi.sourceforge.net/DTD/sodipodi-0.dtd"
   xmlns="http://www.w3.org/2000/svg"
   xmlns:svg="http://www.w3.org/2000/svg">
  <sodipodi:namedview
     id="namedview1"
     pagecolor="#505050"
     bordercolor="#eeeeee"
     borderopacity="1"
     inkscape:showpageshadow="0"
     inkscape:pageopacity="0"
     inkscape:pagecheckerboard="0"
     inkscape:deskcolor="#505050"
     inkscape:document-units="mm">
    <inkscape:page
       x="0"
       y="0"
       width="40.349815"
       height="5.8514953"
       id="page2"
       margin="0"
       bleed="0" />
  </sodipodi:namedview>
  <defs
     id="defs1" />
  <g
     inkscape:label="طبقة 1"
     inkscape:groupmode="layer"
     id="layer1"
     transform="translate(-135.9214,-154.22693)">
    <g
       style="fill:#008080"
       id="g2"
       transform="matrix(0.20507334,0,0,0.20507334,142.15113,154.48703)">
      <path
         d="M 10.928,4.09314 8.48684,9.04266 3.02517,9.83892 C 2.04573,9.98098 1.65321,11.1885 2.36349,11.88 l 3.95139,3.8505 -0.93457,5.4392 c -0.16823,0.9832 0.86728,1.7197 1.73457,1.2599 l 4.88602,-2.5683 4.8859,2.5683 c 0.8673,0.456 1.9028,-0.2767 1.7346,-1.2599 L 17.6868,15.7305 21.6382,11.88 C 22.3485,11.1885 21.956,9.98098 20.9765,9.83892 L 15.5149,9.04266 13.0738,4.09314 c -0.4374,-0.88224 -1.7047,-0.89346 -2.1458,0 z"
         fill="#ff4a17"
         id="path1-0"
         style="fill:#008080" />
      <path
         d="M 38.928,4.09314 36.4868,9.04266 31.0252,9.83892 C 30.0457,9.98098 29.6532,11.1885 30.3635,11.88 l 3.9514,3.8505 -0.9346,5.4392 c -0.1682,0.9832 0.8673,1.7197 1.7346,1.2599 l 4.886,-2.5683 4.8859,2.5683 c 0.8673,0.456 1.9028,-0.2767 1.7346,-1.2599 L 45.6868,15.7305 49.6382,11.88 C 50.3485,11.1885 49.956,9.98098 48.9765,9.83892 L 43.5149,9.04266 41.0738,4.09314 c -0.4374,-0.88224 -1.7047,-0.89346 -2.1458,0 z"
         fill="#ff4a17"
         id="path2-9"
         style="fill:#008080" />
      <path
         d="M 66.928,4.09314 64.4868,9.04266 59.0252,9.83892 C 58.0457,9.98098 57.6532,11.1885 58.3635,11.88 l 3.9514,3.8505 -0.9346,5.4392 c -0.1682,0.9832 0.8673,1.7197 1.7346,1.2599 l 4.886,-2.5683 4.8859,2.5683 c 0.8673,0.456 1.9028,-0.2767 1.7346,-1.2599 L 73.6868,15.7305 77.6382,11.88 C 78.3485,11.1885 77.956,9.98098 76.9765,9.83892 L 71.5149,9.04266 69.0738,4.09314 c -0.4374,-0.88224 -1.7047,-0.89346 -2.1458,0 z"
         fill="#ff4a17"
         id="path3-4"
         style="fill:#008080" />
      <path
         d="M 94.928,4.09314 92.4868,9.04266 87.0252,9.83892 C 86.0457,9.98098 85.6532,11.1885 86.3635,11.88 l 3.9514,3.8505 -0.9346,5.4392 c -0.1682,0.9832 0.8673,1.7197 1.7346,1.2599 l 4.886,-2.5683 4.8861,2.5683 c 0.867,0.456 1.903,-0.2767 1.734,-1.2599 l -0.934,-5.4392 3.951,-3.8505 c 0.711,-0.6915 0.318,-1.89902 -0.661,-2.04108 L 99.5149,9.04266 97.0738,4.09314 c -0.4374,-0.88224 -1.7047,-0.89346 -2.1458,0 z"
         fill="#ff4a17"
         id="path4-8"
         style="fill:#008080" />
      <path
         d="m 122.928,4.09314 -2.441,4.94952 -5.462,0.79626 c -0.979,0.14206 -1.372,1.34958 -0.662,2.04108 l 3.952,3.8505 -0.935,5.4392 c -0.168,0.9832 0.868,1.7197 1.735,1.2599 l 4.886,-2.5683 4.886,2.5683 c 0.867,0.456 1.903,-0.2767 1.734,-1.2599 l -0.934,-5.4392 3.951,-3.8505 c 0.711,-0.6915 0.318,-1.89902 -0.661,-2.04108 l -5.462,-0.79626 -2.441,-4.94952 c -0.438,-0.88224 -1.705,-0.89346 -2.146,0 z"
         fill="#ff4a17"
         id="path5-8"
         style="fill:#008080" />
    </g>
  </g>
</svg>
